# xmcd
#
# Track frame offsets: 
#        150
#        12020
#        22793
#        36858
#        48870
#        60468
#        73258
#        84923
#        97533
#        110055
#        121523
#        133103
#        144005
#        156318
#        166955
#        178690
#        190308
#        203945
#        216763
#        225518
#        235173
#        245363
#        257600
#        271485
#        282275
#
# Disc length: 3936 seconds
#
# Revision: 1
# Processed by: cddbd v1.5.2PL0 Copyright (c) Steve Scherf et al.
# Submitted via: ExactAudioCopy v0.95b2
#
DISCID=490f5e19
DTITLE=Roy Milton - Groovy Blues
DYEAR=1992
DGENRE=R&B
TTITLE0=Groovy Blues
TTITLE1=Rhythm Cocktail
TTITLE2=On The Sunny Side Of The Street
TTITLE3=Little Boy Blue
TTITLE4=Pack Your Sack, Jack
TTITLE5=Roy Rides (Nip Time)
TTITLE6=Cryin' And Singin' The Blues
TTITLE7=Unidentified Shuffle Blues (#1)
TTITLE8=I Want A Little Girl
TTITLE9=My Blue Heaven
TTITLE10='Tain't Me
TTITLE11=Junior Jumps
TTITLE12=Sympathetic Blues
TTITLE13=Oh Marie
TTITLE14=Waking Up Baby
TTITLE15=Playboy Blues
TTITLE16=Bye Bye Baby Blues
TTITLE17=Don't You Remember, Baby?
TTITLE18=One O'Clock Jump
TTITLE19=Marie
TTITLE20=Unidentified Novelty Song (#1)
TTITLE21=That's The One For Me
TTITLE22=Cold Blooded Woman
TTITLE23=Short, Sweet And Snappy
TTITLE24=I Stood By
EXTD=
EXTT0=
EXTT1=
EXTT2=
EXTT3=
EXTT4=
EXTT5=
EXTT6=
EXTT7=
EXTT8=
EXTT9=
EXTT10=
EXTT11=
EXTT12=
EXTT13=
EXTT14=
EXTT15=
EXTT16=
EXTT17=
EXTT18=
EXTT19=
EXTT20=
EXTT21=
EXTT22=
EXTT23=
EXTT24=
PLAYORDER=
